<svg width="38" height="38" viewBox="0 0 38 38" fill="none" xmlns="http://www.w3.org/2000/svg">
<path d="M2.42879 3.34381C-0.488809 6.37434 0.108325 9.5936 0.108325 19.3736C0.108325 27.4952 -1.30871 35.637 6.10751 37.5537C8.42333 38.1493 28.9424 38.1493 31.2552 37.5506C34.3429 36.7539 36.8552 34.2493 37.1987 29.8822C37.2466 29.2727 37.2466 9.48531 37.1971 8.86343C36.832 4.21166 33.9686 1.53075 30.1955 0.98776C29.3307 0.862454 29.1575 0.825327 24.7207 0.817592C8.98334 0.825327 5.53358 0.124546 2.42879 3.34381Z" fill="url(#paint0_linear)"/>
<path d="M18.669 5.67355C13.052 5.67355 7.71798 5.17388 5.68061 10.4027C4.83906 12.5622 4.96127 15.3669 4.96127 19.3829C4.96127 22.9069 4.84834 26.219 5.68061 28.3615C7.71334 33.5934 13.0906 33.0922 18.6659 33.0922C24.0448 33.0922 29.5907 33.6522 31.6528 28.3615C32.4959 26.1803 32.3722 23.4174 32.3722 19.3829C32.3722 14.0272 32.6677 10.5697 30.0703 7.97391C27.4404 5.34405 23.8839 5.67355 18.6629 5.67355H18.669ZM17.4407 8.14408C29.1576 8.12551 30.6488 6.82296 29.8259 24.918C29.5335 31.3178 24.6605 30.6155 18.6706 30.6155C7.74892 30.6155 7.43489 30.303 7.43489 19.3767C7.43489 8.32353 8.3012 8.15027 17.4407 8.14098V8.14408ZM25.9863 10.4197C25.0782 10.4197 24.3418 11.156 24.3418 12.0641C24.3418 12.9722 25.0782 13.7086 25.9863 13.7086C26.8943 13.7086 27.6307 12.9722 27.6307 12.0641C27.6307 11.156 26.8943 10.4197 25.9863 10.4197ZM18.669 12.3426C14.7815 12.3426 11.6303 15.4953 11.6303 19.3829C11.6303 23.2704 14.7815 26.4216 18.669 26.4216C22.5566 26.4216 25.7062 23.2704 25.7062 19.3829C25.7062 15.4953 22.5566 12.3426 18.669 12.3426ZM18.669 14.8131C24.71 14.8131 24.7177 23.9527 18.669 23.9527C12.6296 23.9527 12.6204 14.8131 18.669 14.8131Z" fill="white"/>
<defs>
<linearGradient id="paint0_linear" x1="2.96394" y1="0.758226" x2="34.5167" y2="1.61431" gradientUnits="userSpaceOnUse">
<stop stop-color="#B6B6B6"/>
<stop offset="0.841856" stop-color="#006689"/>
</linearGradient>
</defs>
</svg>
