<svg width="67" height="67" viewBox="0 0 67 67" fill="none" xmlns="http://www.w3.org/2000/svg">
<path d="M33.5 0C52.0016 0 67 14.9984 67 33.5C67 52.0016 52.0016 67 33.5 67C14.9984 67 0 52.0016 0 33.5C0 14.9984 14.9984 0 33.5 0ZM33.5 62.8125C49.6889 62.8125 62.8125 49.6889 62.8125 33.5C62.8125 17.3111 49.6889 4.1875 33.5 4.1875C17.3111 4.1875 4.1875 17.3111 4.1875 33.5C4.1875 49.6889 17.3111 62.8125 33.5 62.8125Z" fill="white"/>
<path d="M38.3157 15.2845L41.2679 18.2367L25.9835 33.5002L41.2469 48.7846L38.2948 51.7368L21.5657 34.9867C20.7538 34.17 20.7538 32.8512 21.5657 32.0346L38.3157 15.2845Z" fill="white"/>
</svg>
