<svg width="44" height="44" viewBox="0 0 44 44" fill="none" xmlns="http://www.w3.org/2000/svg">
<circle cx="21.9117" cy="21.9117" r="21.9117" fill="url(#paint0_linear)"/>
<g clip-path="url(#clip0)">
<path d="M33.8291 8.12958H13.6577C13.382 8.12958 13.1584 8.35311 13.1584 8.62887V10.8257H11.4609C11.1851 10.8257 10.9616 11.0493 10.9616 11.325V14.0212H9.26397C8.98822 14.0212 8.76468 14.2448 8.76468 14.5205V30.9971C8.76468 32.4837 9.97421 33.6932 11.4609 33.6932H31.6322C33.1188 33.6932 34.3283 32.4837 34.3283 30.9971V8.62887C34.3283 8.35311 34.1048 8.12958 33.8291 8.12958ZM33.3298 30.9971C33.3298 31.9331 32.5683 32.6947 31.6322 32.6947H13.5535C13.9304 32.2308 14.157 31.64 14.157 30.9971V24.2568C14.157 23.9811 13.9334 23.7575 13.6577 23.7575C13.382 23.7575 13.1584 23.9811 13.1584 24.2568V30.9971C13.1584 31.9331 12.3969 32.6947 11.4609 32.6947C10.5248 32.6947 9.76326 31.9331 9.76326 30.9971V15.0198H10.9616V30.4978C10.9616 30.7735 11.1851 30.9971 11.4609 30.9971C11.7366 30.9971 11.9601 30.7735 11.9601 30.4978V11.8243H13.1584V19.7632C13.1584 20.039 13.382 20.2625 13.6577 20.2625C13.9334 20.2625 14.157 20.039 14.157 19.7632V9.12816H33.3298V30.9971Z" fill="white"/>
<path d="M16.0543 16.0184H31.4325C31.7082 16.0184 31.9318 15.7948 31.9318 15.5191V11.9242C31.9318 11.6485 31.7082 11.4249 31.4325 11.4249H16.0543C15.7786 11.4249 15.555 11.6485 15.555 11.9242V15.5191C15.555 15.7948 15.7786 16.0184 16.0543 16.0184ZM16.5536 12.4235H30.9332V15.0198H16.5536V12.4235Z" fill="white"/>
<path d="M16.0543 28.0013H23.7434C24.0191 28.0013 24.2427 27.7778 24.2427 27.502V17.9157C24.2427 17.6399 24.0191 17.4164 23.7434 17.4164H16.0543C15.7786 17.4164 15.555 17.6399 15.555 17.9157V27.502C15.555 27.7778 15.7786 28.0013 16.0543 28.0013ZM16.5536 18.415H23.2441V27.0028H16.5536V18.415Z" fill="white"/>
<path d="M31.4325 17.4164H26.14C25.8643 17.4164 25.6407 17.6399 25.6407 17.9157C25.6407 18.1914 25.8643 18.415 26.14 18.415H31.4325C31.7082 18.415 31.9318 18.1914 31.9318 17.9157C31.9318 17.6399 31.7082 17.4164 31.4325 17.4164Z" fill="white"/>
<path d="M31.4325 19.813H26.14C25.8643 19.813 25.6407 20.0365 25.6407 20.3122C25.6407 20.588 25.8643 20.8115 26.14 20.8115H31.4325C31.7082 20.8115 31.9318 20.588 31.9318 20.3122C31.9318 20.0365 31.7082 19.813 31.4325 19.813Z" fill="white"/>
<path d="M31.4325 22.2096H26.14C25.8643 22.2096 25.6407 22.4331 25.6407 22.7089C25.6407 22.9846 25.8643 23.2081 26.14 23.2081H31.4325C31.7082 23.2081 31.9318 22.9846 31.9318 22.7089C31.9318 22.4331 31.7082 22.2096 31.4325 22.2096Z" fill="white"/>
<path d="M31.4325 24.6062H26.14C25.8643 24.6062 25.6407 24.8298 25.6407 25.1055C25.6407 25.3812 25.8643 25.6048 26.14 25.6048H31.4325C31.7082 25.6048 31.9318 25.3812 31.9318 25.1055C31.9318 24.8298 31.7082 24.6062 31.4325 24.6062Z" fill="white"/>
<path d="M31.4325 27.0027H26.14C25.8643 27.0027 25.6407 27.2263 25.6407 27.502C25.6407 27.7777 25.8643 28.0013 26.14 28.0013H31.4325C31.7082 28.0013 31.9318 27.7777 31.9318 27.502C31.9318 27.2263 31.7082 27.0027 31.4325 27.0027Z" fill="white"/>
<path d="M16.0543 30.3979H31.4325C31.7082 30.3979 31.9318 30.1744 31.9318 29.8986C31.9318 29.6229 31.7082 29.3994 31.4325 29.3994H16.0543C15.7786 29.3994 15.555 29.6229 15.555 29.8986C15.555 30.1744 15.7786 30.3979 16.0543 30.3979Z" fill="white"/>
<path d="M13.6827 21.5106C13.5514 21.5106 13.4226 21.5639 13.3297 21.6569C13.2368 21.7497 13.1834 21.8785 13.1834 22.0098C13.1834 22.1417 13.2368 22.27 13.3297 22.3628C13.4226 22.4562 13.5514 22.5091 13.6827 22.5091C13.814 22.5091 13.9428 22.4562 14.0356 22.3628C14.1285 22.27 14.182 22.1412 14.182 22.0098C14.182 21.8785 14.1286 21.7497 14.0356 21.6569C13.9428 21.5639 13.814 21.5106 13.6827 21.5106Z" fill="white"/>
</g>
<defs>
<linearGradient id="paint0_linear" x1="9.12988" y1="8.21689" x2="30.1286" y2="40.1715" gradientUnits="userSpaceOnUse">
<stop stop-color="#001526"/>
<stop offset="1" stop-color="#002D44"/>
</linearGradient>
<clipPath id="clip0">
<rect width="25.5637" height="25.5637" fill="white" transform="translate(8.76468 8.12958)"/>
</clipPath>
</defs>
</svg>
