<svg width="44" height="44" viewBox="0 0 44 44" fill="none" xmlns="http://www.w3.org/2000/svg">
<circle cx="21.9117" cy="21.9117" r="21.9117" fill="url(#paint0_linear)"/>
<g clip-path="url(#clip0)">
<path d="M24.1666 11.5847H24.879V9.47733H22.0592V12.467C22.0592 12.6634 21.8994 12.8232 21.703 12.8232C21.5066 12.8232 21.3468 12.6634 21.3468 12.467V9.47733H18.527V11.5847H19.2393V12.467H19.2394C19.2394 13.8255 20.3446 14.9306 21.703 14.9306C23.0615 14.9306 24.1666 13.8255 24.1666 12.467V11.5847ZM24.0639 10.7695H23.3516V12.467C23.3516 13.376 22.6121 14.1155 21.7031 14.1155C20.7942 14.1155 20.0547 13.376 20.0547 12.467V10.7695H19.3424V10.2925H20.5317V12.467C20.5317 13.1129 21.0572 13.6384 21.7031 13.6384C22.349 13.6384 22.8744 13.1129 22.8744 12.467V10.2925H24.0639V10.7695Z" fill="white"/>
<path d="M12.0569 18.9739H11.2417V19.7891H12.0569V18.9739Z" fill="white"/>
<path d="M12.0569 21.6911H11.2417V25.5675H12.0569V21.6911Z" fill="white"/>
<path d="M12.0569 20.3325H11.2417V21.1477H12.0569V20.3325Z" fill="white"/>
<path d="M18.7233 18.9739H17.9081V19.7891H18.7233V18.9739Z" fill="white"/>
<path d="M18.7233 20.3325H17.9081V21.1477H18.7233V20.3325Z" fill="white"/>
<path d="M18.7233 21.6911H17.9081V25.5675H18.7233V21.6911Z" fill="white"/>
<path d="M25.661 21.6911H24.8458V25.5675H25.661V21.6911Z" fill="white"/>
<path d="M25.661 20.3325H24.8458V21.1477H25.661V20.3325Z" fill="white"/>
<path d="M25.661 18.9739H24.8458V19.7891H25.661V18.9739Z" fill="white"/>
<path d="M32.3817 18.9739H31.5666V19.7891H32.3817V18.9739Z" fill="white"/>
<path d="M32.3817 20.3325H31.5666V21.1477H32.3817V20.3325Z" fill="white"/>
<path d="M32.3817 21.6911H31.5666V25.5675H32.3817V21.6911Z" fill="white"/>
<path d="M35.099 29.6123V28.0613H34.5858L34.3182 26.243H33.6401V18.2H34.3182L34.5858 16.3818H35.6044L21.7029 4.75046L7.80127 16.3817H8.82028L9.08782 18.2H9.76593V26.243H9.08782L8.82028 28.0612H8.30711V29.6123H7.79083V31.9786H35.6152V29.6123H35.099ZM33.7618 28.0613H29.9505L30.0981 27.0582H33.6142L33.7618 28.0613ZM16.4581 17.3849L16.3105 16.3818H20.1219L19.9743 17.3849H16.4581ZM19.1851 18.2V26.243H17.2474V18.2H19.1851ZM16.4323 18.2V26.243H15.7542L15.4866 28.0613H14.2796L14.0121 26.243H13.334V18.2H14.0121L14.2796 16.3818H15.4866L15.7542 18.2H16.4323ZM16.4581 27.0582H19.9743L20.1219 28.0613H16.3105L16.4581 27.0582ZM20.0003 26.243V18.2H20.6784L20.9459 16.3818H22.4602L22.7277 18.2H23.4059V26.243H22.7277L22.4602 28.0613H20.9459L20.6784 26.243H20.0003ZM23.4318 17.3849L23.2842 16.3818H27.0956L26.9479 17.3849H23.4318ZM26.1587 18.2V26.243H24.221V18.2H26.1587ZM23.4318 27.0582H26.9479L27.0956 28.0613H23.2842L23.4318 27.0582ZM26.9739 26.243V18.2H27.652L27.9196 16.3818H29.1265L29.394 18.2H30.0721V26.243H29.394L29.1264 28.0613H27.9195L27.652 26.243H26.9739ZM30.8873 26.243V18.2H32.825V26.243H30.8873ZM33.6142 17.3849H30.0981L29.9505 16.3818H33.7618L33.6142 17.3849ZM21.7029 5.81327L33.3598 15.5665H10.0459L21.7029 5.81327ZM9.64425 16.3817H13.4556L13.308 17.3848H9.79185L9.64425 16.3817ZM12.5188 18.2V26.243H10.5811V18.2H12.5188ZM9.79185 27.0582H13.308L13.4556 28.0613H9.64425L9.79185 27.0582ZM9.12227 28.8764H34.2838V29.6124H9.12227V28.8764ZM34.8001 31.1634H8.606V30.4275H34.8001V31.1634Z" fill="white"/>
<path d="M21.7029 7.82502L23.2394 9.11065L23.7625 8.48547L21.7029 6.76215L19.6432 8.48547L20.1663 9.11065L21.7029 7.82502Z" fill="white"/>
<path d="M25.8198 10.2068L25.2968 10.8319L29.2212 14.1155H24.0771V14.9307H31.4658L25.8198 10.2068Z" fill="white"/>
<path d="M18.1093 10.8317L17.5862 10.2065L11.94 14.9307H19.3289V14.1155H14.1845L18.1093 10.8317Z" fill="white"/>
</g>
<defs>
<linearGradient id="paint0_linear" x1="9.12988" y1="8.21689" x2="30.1286" y2="40.1715" gradientUnits="userSpaceOnUse">
<stop stop-color="#001526"/>
<stop offset="1" stop-color="#002D44"/>
</linearGradient>
<clipPath id="clip0">
<rect width="27.8244" height="27.8244" fill="white" transform="translate(7.79083 4.45193)"/>
</clipPath>
</defs>
</svg>
