<svg width="44" height="44" viewBox="0 0 44 44" fill="none" xmlns="http://www.w3.org/2000/svg">
<circle cx="21.9117" cy="21.9117" r="21.9117" fill="url(#paint0_linear)"/>
<g clip-path="url(#clip0)">
<path d="M12.359 35.56C12.4288 35.549 12.4945 35.5196 12.5492 35.4748L16.846 31.9634C16.8725 31.9417 16.8962 31.9166 16.9164 31.8888L23.6543 22.615L23.7881 22.7122C23.8306 22.7431 23.8787 22.7652 23.9297 22.7775C23.9807 22.7897 24.0336 22.7918 24.0854 22.7836C24.1372 22.7754 24.1869 22.7571 24.2316 22.7297C24.2764 22.7023 24.3152 22.6663 24.3461 22.6239L29.7558 15.178L30.1574 15.4698C30.243 15.5321 30.3003 15.6259 30.3169 15.7305C30.3335 15.8351 30.3079 15.9419 30.2457 16.0277L26.7309 20.8654C26.6904 20.9213 26.665 20.9866 26.6573 21.0552C26.6495 21.1238 26.6597 21.1931 26.6867 21.2566L27.3312 22.7722C27.3588 22.8372 27.4033 22.8938 27.4599 22.936C27.5166 22.9783 27.5834 23.0048 27.6537 23.0128C27.7239 23.0207 27.795 23.0099 27.8597 22.9814C27.9244 22.953 27.9803 22.9078 28.0219 22.8506L32.4765 16.719C32.7716 16.3166 32.9046 15.8179 32.8489 15.322C32.7933 14.826 32.5531 14.3692 32.1762 14.0422L31.2011 13.1888L31.7077 12.4915C32.0184 12.0628 32.1464 11.5283 32.0636 11.0053C31.9807 10.4823 31.6938 10.0136 31.2658 9.70183L30.652 9.25588C30.2233 8.94513 29.6888 8.81714 29.1659 8.89997C28.6429 8.9828 28.1741 9.26969 27.8624 9.69771L20.5008 19.8301C20.4385 19.9158 20.4128 20.0228 20.4294 20.1274C20.446 20.232 20.5034 20.3258 20.5891 20.388L20.723 20.4853L13.9852 29.7592C13.965 29.7869 13.9485 29.8171 13.9361 29.8491L11.9243 35.0207C11.8988 35.0862 11.8911 35.1572 11.9018 35.2267C11.9126 35.2961 11.9415 35.3615 11.9856 35.4162C12.0296 35.4709 12.0874 35.513 12.153 35.5382C12.2185 35.5635 12.2896 35.571 12.359 35.56ZM14.8661 29.9056L20.3732 22.3258L22.0119 23.5165L16.5049 31.0961L14.8661 29.9056ZM26.5568 12.8538L29.1095 14.7085L24.9306 20.4602L22.3779 18.6056L26.5568 12.8538ZM31.8303 16.2494L27.79 21.8103L27.5101 21.1519L30.892 16.4972C31.0788 16.2401 31.1558 15.9193 31.1061 15.6054C31.0564 15.2915 30.884 15.0102 30.6269 14.8234L30.2253 14.5317L30.7295 13.8377L31.65 14.6433C31.8762 14.8394 32.0203 15.1136 32.0537 15.4111C32.0871 15.7087 32.0073 16.0079 31.8303 16.2494ZM28.5087 10.1673C28.6957 9.91047 28.977 9.73833 29.2908 9.68863C29.6046 9.63893 29.9253 9.71573 30.1825 9.90218L30.7963 10.3481C31.0531 10.5352 31.2252 10.8164 31.2749 11.1302C31.3246 11.444 31.2478 11.7647 31.0614 12.0219L30.5751 12.6912L28.0224 10.8366L28.5087 10.1673ZM27.5529 11.4828L30.1056 13.3375L29.5791 14.0622L27.0263 12.2076L27.5529 11.4828ZM21.9084 19.2518L24.4611 21.1065L23.9346 21.8312L21.3818 19.9766L21.9084 19.2518ZM23.008 22.1455L22.4815 22.8702L20.8427 21.6796L21.3693 20.9548L23.008 22.1455ZM14.4927 30.6216L15.9393 31.6726L13.2191 33.8957L14.4927 30.6216Z" fill="white"/>
</g>
<defs>
<linearGradient id="paint0_linear" x1="9.12988" y1="8.21689" x2="30.1286" y2="40.1715" gradientUnits="userSpaceOnUse">
<stop stop-color="#001526"/>
<stop offset="1" stop-color="#002D44"/>
</linearGradient>
<clipPath id="clip0">
<rect width="25.5637" height="25.5637" fill="white" transform="translate(7.30383 11.3029) rotate(-9)"/>
</clipPath>
</defs>
</svg>
