<svg width="44" height="44" viewBox="0 0 44 44" fill="none" xmlns="http://www.w3.org/2000/svg">
<circle cx="21.9117" cy="21.9117" r="21.9117" fill="url(#paint0_linear)"/>
<path d="M30.6784 9.12988H15.3247C13.9226 9.12988 12.7819 10.2697 12.7819 11.6707V31.3681C12.7819 32.7691 13.9226 33.9089 15.3247 33.9089H30.6784C30.879 33.9089 31.0416 33.7464 31.0416 33.5459V32.094C31.0416 31.9978 31.0034 31.9054 30.9353 31.8374C30.2757 31.1783 30.2757 30.106 30.9353 29.4469C31.0034 29.3788 31.0416 29.2865 31.0416 29.1902V9.49286C31.0416 9.2924 30.879 9.12988 30.6784 9.12988ZM13.5084 11.6707C13.5084 10.7943 14.1334 10.0609 14.9614 9.89227V27.4012C14.396 27.4824 13.8901 27.7501 13.5084 28.1397V11.6707ZM15.3247 33.183C14.3231 33.183 13.5084 32.3688 13.5084 31.3681V29.9162C13.5084 28.9155 14.3231 28.1013 15.3247 28.1013C15.5253 28.1013 15.6879 27.9388 15.6879 27.7383V9.85583H30.3151V27.3754H16.7777C16.577 27.3754 16.4144 27.5379 16.4144 27.7383C16.4144 27.9388 16.577 28.1013 16.7777 28.1013H30.3151V28.8273H15.3247C14.7238 28.8273 14.2349 29.3157 14.2349 29.9162V31.3681C14.2349 31.9685 14.7238 32.457 15.3247 32.457H30.3151V33.183H15.3247ZM14.9614 31.0051H29.7402C29.7784 31.2594 29.8566 31.5038 29.9718 31.7311H15.3247C15.1243 31.7311 14.9614 31.5683 14.9614 31.3681V31.0051ZM29.7402 30.2792H14.9614V29.9162C14.9614 29.716 15.1243 29.5532 15.3247 29.5532H29.9718C29.8567 29.7804 29.7785 30.0248 29.7402 30.2792Z" fill="white"/>
<path d="M18.2308 17.8413H27.7723C27.973 17.8413 28.1356 17.6788 28.1356 17.4783V12.3967C28.1356 12.1962 27.973 12.0337 27.7723 12.0337H18.2308C18.0301 12.0337 17.8675 12.1962 17.8675 12.3967V17.4783C17.8675 17.6788 18.0301 17.8413 18.2308 17.8413ZM18.594 12.7597H27.4091V17.1154H18.594V12.7597Z" fill="white"/>
<path d="M26.3193 13.4857H19.6838C19.4831 13.4857 19.3205 13.6482 19.3205 13.8486V16.0265C19.3205 16.2269 19.4831 16.3894 19.6838 16.3894H26.3193C26.5199 16.3894 26.6825 16.2269 26.6825 16.0265V13.8486C26.6825 13.6482 26.5199 13.4857 26.3193 13.4857ZM25.956 15.6635H20.047V14.2116H25.956V15.6635Z" fill="white"/>
<defs>
<linearGradient id="paint0_linear" x1="9.12988" y1="8.21689" x2="30.1286" y2="40.1715" gradientUnits="userSpaceOnUse">
<stop stop-color="#001526"/>
<stop offset="1" stop-color="#002D44"/>
</linearGradient>
</defs>
</svg>
