<svg width="38" height="40" viewBox="0 0 38 40" fill="none" xmlns="http://www.w3.org/2000/svg">
<path d="M32.3651 0.879089H5.23767C2.47625 0.879089 0.237671 3.11766 0.237671 5.87908V34.2441C0.237671 37.0056 2.47625 39.2441 5.23768 39.2441H32.3652C35.1266 39.2441 37.3652 37.0056 37.3652 34.2442V5.87909C37.3652 3.11767 35.1266 0.879089 32.3651 0.879089Z" fill="url(#paint0_linear)"/>
<path d="M11.196 32.0621C8.80892 32.697 6.63616 30.4886 7.28552 28.1054C7.50938 27.2838 7.38272 26.4101 7.036 25.6324C6.25709 23.8851 5.85103 21.9785 5.85103 20.0299C5.85103 12.6415 11.668 6.63065 18.818 6.63065C25.9681 6.63065 31.785 12.6415 31.785 20.0299C31.785 27.4183 25.9681 33.4291 18.818 33.4291C17.0336 33.4291 15.279 33.0511 13.6595 32.3257C12.8839 31.9783 12.0173 31.8436 11.196 32.0621ZM12.3657 29.4038C12.6549 29.3269 12.9631 29.3739 13.2161 29.5336C14.8988 30.5951 16.8359 31.1562 18.818 31.1562C24.7552 31.1562 29.5853 26.1649 29.5853 20.0299C29.5853 13.8948 24.7552 8.9036 18.818 8.9036C12.8809 8.9036 8.05066 13.8948 8.05066 20.0299C8.05066 22.1676 8.63862 24.2434 9.75082 26.0331C9.92127 26.3074 9.96988 26.6402 9.88499 26.9518L9.80751 27.2361C9.43617 28.599 10.6815 29.8518 12.0465 29.4887L12.3657 29.4038Z" fill="white"/>
<path d="M15.1755 13.7936L14.3341 13.7462C14.0698 13.7313 13.8105 13.8226 13.6108 14.0019C13.2029 14.3679 12.5506 15.0756 12.3503 15.9977C12.0516 17.3727 12.5133 19.0564 13.7081 20.74C14.903 22.4237 17.1298 25.1176 21.0674 26.2681C22.3363 26.6389 23.3344 26.3889 24.1045 25.8799C24.7145 25.4767 25.1349 24.8296 25.2865 24.098L25.4208 23.4497C25.4635 23.2436 25.3622 23.0345 25.177 22.9462L22.3333 21.5918C22.1487 21.5039 21.9298 21.5595 21.8057 21.7257L20.6893 23.2212C20.605 23.3342 20.4606 23.3789 20.3303 23.3316C19.5658 23.054 17.0049 21.9457 15.5997 19.1488C15.5388 19.0275 15.554 18.8803 15.6404 18.7768L16.7073 17.5014C16.8163 17.3712 16.8438 17.1881 16.7783 17.0298L15.5526 14.0665C15.4873 13.9087 15.3411 13.803 15.1755 13.7936Z" fill="white"/>
<defs>
<linearGradient id="paint0_linear" x1="3.19309" y1="0.879091" x2="34.6567" y2="1.70538" gradientUnits="userSpaceOnUse">
<stop stop-color="#B6B6B6"/>
<stop offset="0.841856" stop-color="#006689"/>
</linearGradient>
</defs>
</svg>
