<svg width="67" height="67" viewBox="0 0 67 67" fill="none" xmlns="http://www.w3.org/2000/svg">
<path d="M33.5 0C14.9984 0 0 14.9984 0 33.5C0 52.0016 14.9984 67 33.5 67C52.0016 67 67 52.0016 67 33.5C67 14.9984 52.0016 0 33.5 0ZM33.5 62.8125C17.3111 62.8125 4.1875 49.6889 4.1875 33.5C4.1875 17.3111 17.3111 4.1875 33.5 4.1875C49.6889 4.1875 62.8125 17.3111 62.8125 33.5C62.8125 49.6889 49.6889 62.8125 33.5 62.8125Z" fill="white"/>
<path d="M28.6842 15.2845L25.7321 18.2367L41.0164 33.5002L25.753 48.7846L28.7052 51.7368L45.4342 34.9867C46.2461 34.17 46.2461 32.8512 45.4342 32.0346L28.6842 15.2845Z" fill="white"/>
</svg>
