<svg width="196" height="196" viewBox="0 0 196 196" fill="none" xmlns="http://www.w3.org/2000/svg">
<path d="M0 98C0 43.961 43.961 0 98 0C152.039 0 196 43.961 196 98C196 152.039 152.039 196 98 196C43.961 196 0 152.039 0 98Z" fill="#FFFCFC"/>
<path d="M70.166 70.832V77.48H66.566V74H54.71V77.48H51.11L51.134 70.832H51.806C52.814 70.8 53.526 70.064 53.942 68.624C54.358 67.184 54.614 65.128 54.71 62.456L54.902 57.2H67.814V70.832H70.166ZM58.142 62.816C58.062 64.816 57.894 66.496 57.638 67.856C57.382 69.2 56.99 70.192 56.462 70.832H63.974V60.368H58.214L58.142 62.816ZM85.7913 70.88V74H72.7833V57.2H85.4793V60.32H76.6473V63.968H84.4473V66.992H76.6473V70.88H85.7913ZM104.34 57.2V74H100.452V67.112H92.8198V74H88.9318V57.2H92.8198V63.824H100.452V57.2H104.34ZM123.957 57.2V74H120.069V67.112H112.437V74H108.549V57.2H112.437V63.824H120.069V57.2H123.957ZM139.542 70.4H131.742L130.254 74H126.27L133.758 57.2H137.598L145.11 74H141.03L139.542 70.4ZM138.318 67.448L135.654 61.016L132.99 67.448H138.318ZM68.7731 94.552C68.7731 96.776 68.0131 98.528 66.4931 99.808C64.9891 101.072 62.8211 101.776 59.9891 101.92V103.744H56.4131V101.896C53.5651 101.736 51.3811 101.024 49.8611 99.76C48.3571 98.48 47.6051 96.744 47.6051 94.552C47.6051 92.344 48.3571 90.616 49.8611 89.368C51.3811 88.104 53.5651 87.384 56.4131 87.208V85.48H59.9891V87.184C62.8211 87.344 64.9891 88.064 66.4931 89.344C68.0131 90.624 68.7731 92.36 68.7731 94.552ZM59.9891 98.872C61.6851 98.712 62.9491 98.28 63.7811 97.576C64.6131 96.856 65.0291 95.84 65.0291 94.528C65.0291 91.968 63.3491 90.544 59.9891 90.256V98.872ZM51.3731 94.552C51.3731 97.08 53.0531 98.52 56.4131 98.872V90.256C54.7011 90.416 53.4291 90.848 52.5971 91.552C51.7811 92.24 51.3731 93.24 51.3731 94.552ZM79.6978 103.288C77.9538 103.288 76.3778 102.912 74.9698 102.16C73.5778 101.408 72.4818 100.376 71.6818 99.064C70.8978 97.736 70.5058 96.248 70.5058 94.6C70.5058 92.952 70.8978 91.472 71.6818 90.16C72.4818 88.832 73.5778 87.792 74.9698 87.04C76.3778 86.288 77.9538 85.912 79.6978 85.912C81.4418 85.912 83.0098 86.288 84.4018 87.04C85.7938 87.792 86.8898 88.832 87.6898 90.16C88.4898 91.472 88.8898 92.952 88.8898 94.6C88.8898 96.248 88.4898 97.736 87.6898 99.064C86.8898 100.376 85.7938 101.408 84.4018 102.16C83.0098 102.912 81.4418 103.288 79.6978 103.288ZM79.6978 99.976C80.6898 99.976 81.5858 99.752 82.3858 99.304C83.1858 98.84 83.8098 98.2 84.2578 97.384C84.7218 96.568 84.9538 95.64 84.9538 94.6C84.9538 93.56 84.7218 92.632 84.2578 91.816C83.8098 91 83.1858 90.368 82.3858 89.92C81.5858 89.456 80.6898 89.224 79.6978 89.224C78.7058 89.224 77.8098 89.456 77.0098 89.92C76.2098 90.368 75.5778 91 75.1138 91.816C74.6658 92.632 74.4418 93.56 74.4418 94.6C74.4418 95.64 74.6658 96.568 75.1138 97.384C75.5778 98.2 76.2098 98.84 77.0098 99.304C77.8098 99.752 78.7058 99.976 79.6978 99.976ZM99.1569 86.2C100.645 86.2 101.933 86.448 103.021 86.944C104.125 87.44 104.973 88.144 105.565 89.056C106.157 89.968 106.453 91.048 106.453 92.296C106.453 93.528 106.157 94.608 105.565 95.536C104.973 96.448 104.125 97.152 103.021 97.648C101.933 98.128 100.645 98.368 99.1569 98.368H95.7729V103H91.8849V86.2H99.1569ZM98.9409 95.2C100.109 95.2 100.997 94.952 101.605 94.456C102.213 93.944 102.517 93.224 102.517 92.296C102.517 91.352 102.213 90.632 101.605 90.136C100.997 89.624 100.109 89.368 98.9409 89.368H95.7729V95.2H98.9409ZM124.306 103L124.282 92.944L119.338 101.224H117.61L112.666 93.136V103H109.018V86.2H112.234L118.522 96.64L124.714 86.2H127.93L127.954 103H124.306ZM143.503 99.4H135.703L134.215 103H130.231L137.719 86.2H141.559L149.071 103H144.991L143.503 99.4ZM142.279 96.448L139.615 90.016L136.951 96.448H142.279ZM40.1562 115.2V132H36.2682V125.112H28.6362V132H24.7482V115.2H28.6362V121.824H36.2682V115.2H40.1562ZM55.7413 128.4H47.9413L46.4533 132H42.4693L49.9573 115.2H53.7973L61.3093 132H57.2293L55.7413 128.4ZM54.5173 125.448L51.8533 119.016L49.1893 125.448H54.5173ZM75.1772 123.24C76.2012 123.544 76.9852 124.04 77.5292 124.728C78.0732 125.416 78.3452 126.264 78.3452 127.272C78.3452 128.76 77.7772 129.92 76.6412 130.752C75.5212 131.584 73.9132 132 71.8172 132H63.5372V115.2H71.3612C73.3132 115.2 74.8332 115.576 75.9212 116.328C77.0092 117.08 77.5532 118.152 77.5532 119.544C77.5532 120.376 77.3452 121.112 76.9292 121.752C76.5132 122.376 75.9292 122.872 75.1772 123.24ZM67.4012 122.16H71.0252C71.8732 122.16 72.5132 121.992 72.9452 121.656C73.3772 121.304 73.5932 120.792 73.5932 120.12C73.5932 119.464 73.3692 118.96 72.9212 118.608C72.4892 118.256 71.8572 118.08 71.0252 118.08H67.4012V122.16ZM71.6732 129.12C73.4972 129.12 74.4092 128.4 74.4092 126.96C74.4092 125.568 73.4972 124.872 71.6732 124.872H67.4012V129.12H71.6732ZM95.22 115.2V132H91.38V125.952C89.924 126.48 88.572 126.744 87.324 126.744C85.068 126.744 83.34 126.208 82.14 125.136C80.94 124.048 80.34 122.488 80.34 120.456V115.2H84.18V120.024C84.18 121.176 84.484 122.048 85.092 122.64C85.716 123.216 86.612 123.504 87.78 123.504C89.06 123.504 90.26 123.256 91.38 122.76V115.2H95.22ZM110.773 128.4H102.973L101.485 132H97.5006L104.989 115.2H108.829L116.341 132H112.261L110.773 128.4ZM109.549 125.448L106.885 119.016L104.221 125.448H109.549ZM133.976 115.2V132H130.088V125.112H122.456V132H118.568V115.2H122.456V121.824H130.088V115.2H133.976ZM153.594 115.2V132H149.706V125.112H142.074V132H138.186V115.2H142.074V121.824H149.706V115.2H153.594ZM171.219 115.2V132H167.379V127.536H163.827L160.851 132H156.747L160.251 126.936C159.115 126.472 158.243 125.776 157.635 124.848C157.027 123.904 156.723 122.776 156.723 121.464C156.723 120.168 157.019 119.056 157.611 118.128C158.203 117.184 159.043 116.464 160.131 115.968C161.219 115.456 162.499 115.2 163.971 115.2H171.219ZM164.067 118.368C162.963 118.368 162.115 118.624 161.523 119.136C160.947 119.648 160.659 120.408 160.659 121.416C160.659 122.392 160.939 123.144 161.499 123.672C162.059 124.2 162.883 124.464 163.971 124.464H167.379V118.368H164.067Z" fill="#002D44"/>
</svg>
