<svg width="196" height="196" viewBox="0 0 196 196" fill="none" xmlns="http://www.w3.org/2000/svg">
<path d="M0 98C0 43.961 43.961 0 98 0C152.039 0 196 43.961 196 98C196 152.039 152.039 196 98 196C43.961 196 0 152.039 0 98Z" fill="#FFFCFC"/>
<path d="M53.9877 65.24C54.9637 65.576 55.7237 66.104 56.2677 66.824C56.8277 67.528 57.1077 68.352 57.1077 69.296C57.1077 70.32 56.7717 71.208 56.0997 71.96C55.4277 72.712 54.5157 73.288 53.3637 73.688C52.2277 74.088 50.9797 74.288 49.6197 74.288C48.4677 74.288 47.3157 74.144 46.1637 73.856C45.0277 73.568 43.9477 73.128 42.9237 72.536L44.1237 69.752C44.8597 70.2 45.6677 70.544 46.5477 70.784C47.4437 71.008 48.3157 71.12 49.1637 71.12C50.3157 71.12 51.2677 70.912 52.0197 70.496C52.7877 70.08 53.1717 69.496 53.1717 68.744C53.1717 68.12 52.9077 67.648 52.3797 67.328C51.8677 67.008 51.1637 66.848 50.2677 66.848H46.1637V63.92H49.9797C50.7637 63.92 51.3717 63.76 51.8037 63.44C52.2517 63.12 52.4757 62.68 52.4757 62.12C52.4757 61.464 52.1557 60.952 51.5157 60.584C50.8917 60.216 50.0837 60.032 49.0917 60.032C48.3557 60.032 47.5957 60.136 46.8117 60.344C46.0277 60.536 45.2837 60.832 44.5797 61.232L43.4037 58.208C45.1797 57.296 47.0997 56.84 49.1637 56.84C50.4757 56.84 51.6837 57.032 52.7877 57.416C53.8917 57.8 54.7717 58.36 55.4277 59.096C56.0837 59.832 56.4117 60.688 56.4117 61.664C56.4117 62.464 56.1957 63.176 55.7637 63.8C55.3317 64.424 54.7397 64.904 53.9877 65.24ZM71.5617 70.4H63.7617L62.2737 74H58.2897L65.7777 57.2H69.6177L77.1297 74H73.0497L71.5617 70.4ZM70.3377 67.448L67.6737 61.016L65.0097 67.448H70.3377ZM87.1392 74.288C85.3952 74.288 83.8192 73.912 82.4112 73.16C81.0192 72.408 79.9232 71.376 79.1232 70.064C78.3392 68.736 77.9472 67.248 77.9472 65.6C77.9472 63.952 78.3392 62.472 79.1232 61.16C79.9232 59.832 81.0192 58.792 82.4112 58.04C83.8192 57.288 85.3952 56.912 87.1392 56.912C88.8832 56.912 90.4512 57.288 91.8432 58.04C93.2352 58.792 94.3312 59.832 95.1312 61.16C95.9312 62.472 96.3312 63.952 96.3312 65.6C96.3312 67.248 95.9312 68.736 95.1312 70.064C94.3312 71.376 93.2352 72.408 91.8432 73.16C90.4512 73.912 88.8832 74.288 87.1392 74.288ZM87.1392 70.976C88.1312 70.976 89.0272 70.752 89.8272 70.304C90.6272 69.84 91.2512 69.2 91.6992 68.384C92.1632 67.568 92.3952 66.64 92.3952 65.6C92.3952 64.56 92.1632 63.632 91.6992 62.816C91.2512 62 90.6272 61.368 89.8272 60.92C89.0272 60.456 88.1312 60.224 87.1392 60.224C86.1472 60.224 85.2512 60.456 84.4512 60.92C83.6512 61.368 83.0192 62 82.5552 62.816C82.1072 63.632 81.8832 64.56 81.8832 65.6C81.8832 66.64 82.1072 67.568 82.5552 68.384C83.0192 69.2 83.6512 69.84 84.4512 70.304C85.2512 70.752 86.1472 70.976 87.1392 70.976ZM112.775 57.2V74H108.935V67.952C107.479 68.48 106.127 68.744 104.879 68.744C102.623 68.744 100.895 68.208 99.6947 67.136C98.4947 66.048 97.8947 64.488 97.8947 62.456V57.2H101.735V62.024C101.735 63.176 102.039 64.048 102.647 64.64C103.271 65.216 104.167 65.504 105.335 65.504C106.615 65.504 107.815 65.256 108.935 64.76V57.2H112.775ZM132.359 57.2V74H128.471V67.112H120.839V74H116.951V57.2H120.839V63.824H128.471V57.2H132.359ZM147.944 70.4H140.144L138.656 74H134.672L142.16 57.2H146L153.512 74H149.432L147.944 70.4ZM146.72 67.448L144.056 61.016L141.392 67.448H146.72ZM68.7731 94.552C68.7731 96.776 68.0131 98.528 66.4931 99.808C64.9891 101.072 62.8211 101.776 59.9891 101.92V103.744H56.4131V101.896C53.5651 101.736 51.3811 101.024 49.8611 99.76C48.3571 98.48 47.6051 96.744 47.6051 94.552C47.6051 92.344 48.3571 90.616 49.8611 89.368C51.3811 88.104 53.5651 87.384 56.4131 87.208V85.48H59.9891V87.184C62.8211 87.344 64.9891 88.064 66.4931 89.344C68.0131 90.624 68.7731 92.36 68.7731 94.552ZM59.9891 98.872C61.6851 98.712 62.9491 98.28 63.7811 97.576C64.6131 96.856 65.0291 95.84 65.0291 94.528C65.0291 91.968 63.3491 90.544 59.9891 90.256V98.872ZM51.3731 94.552C51.3731 97.08 53.0531 98.52 56.4131 98.872V90.256C54.7011 90.416 53.4291 90.848 52.5971 91.552C51.7811 92.24 51.3731 93.24 51.3731 94.552ZM79.6978 103.288C77.9538 103.288 76.3778 102.912 74.9698 102.16C73.5778 101.408 72.4818 100.376 71.6818 99.064C70.8978 97.736 70.5058 96.248 70.5058 94.6C70.5058 92.952 70.8978 91.472 71.6818 90.16C72.4818 88.832 73.5778 87.792 74.9698 87.04C76.3778 86.288 77.9538 85.912 79.6978 85.912C81.4418 85.912 83.0098 86.288 84.4018 87.04C85.7938 87.792 86.8898 88.832 87.6898 90.16C88.4898 91.472 88.8898 92.952 88.8898 94.6C88.8898 96.248 88.4898 97.736 87.6898 99.064C86.8898 100.376 85.7938 101.408 84.4018 102.16C83.0098 102.912 81.4418 103.288 79.6978 103.288ZM79.6978 99.976C80.6898 99.976 81.5858 99.752 82.3858 99.304C83.1858 98.84 83.8098 98.2 84.2578 97.384C84.7218 96.568 84.9538 95.64 84.9538 94.6C84.9538 93.56 84.7218 92.632 84.2578 91.816C83.8098 91 83.1858 90.368 82.3858 89.92C81.5858 89.456 80.6898 89.224 79.6978 89.224C78.7058 89.224 77.8098 89.456 77.0098 89.92C76.2098 90.368 75.5778 91 75.1138 91.816C74.6658 92.632 74.4418 93.56 74.4418 94.6C74.4418 95.64 74.6658 96.568 75.1138 97.384C75.5778 98.2 76.2098 98.84 77.0098 99.304C77.8098 99.752 78.7058 99.976 79.6978 99.976ZM99.1569 86.2C100.645 86.2 101.933 86.448 103.021 86.944C104.125 87.44 104.973 88.144 105.565 89.056C106.157 89.968 106.453 91.048 106.453 92.296C106.453 93.528 106.157 94.608 105.565 95.536C104.973 96.448 104.125 97.152 103.021 97.648C101.933 98.128 100.645 98.368 99.1569 98.368H95.7729V103H91.8849V86.2H99.1569ZM98.9409 95.2C100.109 95.2 100.997 94.952 101.605 94.456C102.213 93.944 102.517 93.224 102.517 92.296C102.517 91.352 102.213 90.632 101.605 90.136C100.997 89.624 100.109 89.368 98.9409 89.368H95.7729V95.2H98.9409ZM124.306 103L124.282 92.944L119.338 101.224H117.61L112.666 93.136V103H109.018V86.2H112.234L118.522 96.64L124.714 86.2H127.93L127.954 103H124.306ZM143.503 99.4H135.703L134.215 103H130.231L137.719 86.2H141.559L149.071 103H144.991L143.503 99.4ZM142.279 96.448L139.615 90.016L136.951 96.448H142.279ZM40.1562 115.2V132H36.2682V125.112H28.6362V132H24.7482V115.2H28.6362V121.824H36.2682V115.2H40.1562ZM55.7413 128.4H47.9413L46.4533 132H42.4693L49.9573 115.2H53.7973L61.3093 132H57.2293L55.7413 128.4ZM54.5173 125.448L51.8533 119.016L49.1893 125.448H54.5173ZM75.1772 123.24C76.2012 123.544 76.9852 124.04 77.5292 124.728C78.0732 125.416 78.3452 126.264 78.3452 127.272C78.3452 128.76 77.7772 129.92 76.6412 130.752C75.5212 131.584 73.9132 132 71.8172 132H63.5372V115.2H71.3612C73.3132 115.2 74.8332 115.576 75.9212 116.328C77.0092 117.08 77.5532 118.152 77.5532 119.544C77.5532 120.376 77.3452 121.112 76.9292 121.752C76.5132 122.376 75.9292 122.872 75.1772 123.24ZM67.4012 122.16H71.0252C71.8732 122.16 72.5132 121.992 72.9452 121.656C73.3772 121.304 73.5932 120.792 73.5932 120.12C73.5932 119.464 73.3692 118.96 72.9212 118.608C72.4892 118.256 71.8572 118.08 71.0252 118.08H67.4012V122.16ZM71.6732 129.12C73.4972 129.12 74.4092 128.4 74.4092 126.96C74.4092 125.568 73.4972 124.872 71.6732 124.872H67.4012V129.12H71.6732ZM95.22 115.2V132H91.38V125.952C89.924 126.48 88.572 126.744 87.324 126.744C85.068 126.744 83.34 126.208 82.14 125.136C80.94 124.048 80.34 122.488 80.34 120.456V115.2H84.18V120.024C84.18 121.176 84.484 122.048 85.092 122.64C85.716 123.216 86.612 123.504 87.78 123.504C89.06 123.504 90.26 123.256 91.38 122.76V115.2H95.22ZM110.773 128.4H102.973L101.485 132H97.5006L104.989 115.2H108.829L116.341 132H112.261L110.773 128.4ZM109.549 125.448L106.885 119.016L104.221 125.448H109.549ZM133.976 115.2V132H130.088V125.112H122.456V132H118.568V115.2H122.456V121.824H130.088V115.2H133.976ZM153.594 115.2V132H149.706V125.112H142.074V132H138.186V115.2H142.074V121.824H149.706V115.2H153.594ZM171.219 115.2V132H167.379V127.536H163.827L160.851 132H156.747L160.251 126.936C159.115 126.472 158.243 125.776 157.635 124.848C157.027 123.904 156.723 122.776 156.723 121.464C156.723 120.168 157.019 119.056 157.611 118.128C158.203 117.184 159.043 116.464 160.131 115.968C161.219 115.456 162.499 115.2 163.971 115.2H171.219ZM164.067 118.368C162.963 118.368 162.115 118.624 161.523 119.136C160.947 119.648 160.659 120.408 160.659 121.416C160.659 122.392 160.939 123.144 161.499 123.672C162.059 124.2 162.883 124.464 163.971 124.464H167.379V118.368H164.067Z" fill="#002D44"/>
</svg>
