<svg width="64" height="64" viewBox="0 0 64 64" fill="none" xmlns="http://www.w3.org/2000/svg">
<path d="M32.1531 0C14.9024 0 0.868774 14.3546 0.868774 32C0.868774 49.6454 14.9024 64 32.1531 64C49.4039 64 63.4375 49.6454 63.4375 32C63.4375 14.3546 49.4039 0 32.1531 0ZM41.8175 33.8854L28.7823 47.2186C28.2739 47.7386 27.6065 48 26.939 48C26.2717 48 25.6042 47.7386 25.0958 47.2186C24.0765 46.176 24.0765 44.4906 25.0958 43.448L36.2879 32L25.096 20.552C24.0766 19.5094 24.0766 17.824 25.096 16.7814C26.1153 15.7388 27.7629 15.7388 28.7823 16.7814L41.8175 30.1147C42.8368 31.1574 42.8368 32.8426 41.8175 33.8854Z" fill="#6C90BC"/>
</svg>
