<svg width="64" height="64" viewBox="0 0 64 64" fill="none" xmlns="http://www.w3.org/2000/svg">
<path d="M32.1844 0C49.4351 0 63.4688 14.3546 63.4688 32C63.4688 49.6454 49.4351 64 32.1844 64C14.9336 64 0.900002 49.6454 0.900002 32C0.900002 14.3546 14.9336 0 32.1844 0ZM22.5201 33.8854L35.5553 47.2186C36.0636 47.7386 36.731 48 37.3985 48C38.0658 48 38.7333 47.7386 39.2417 47.2186C40.261 46.176 40.261 44.4906 39.2417 43.448L28.0496 32L39.2416 20.552C40.2609 19.5094 40.2609 17.824 39.2416 16.7814C38.2223 15.7388 36.5746 15.7388 35.5553 16.7814L22.5201 30.1147C21.5008 31.1574 21.5008 32.8426 22.5201 33.8854Z" fill="#6C90BC"/>
</svg>
