<svg width="163" height="35" viewBox="0 0 163 35" fill="none" xmlns="http://www.w3.org/2000/svg">
<path d="M13.122 0.399999V13H10.206V7.834H4.482V13H1.566V0.399999H4.482V5.368H10.206V0.399999H13.122ZM26.0349 10.66V13H16.2789V0.399999H25.8009V2.74H19.1769V5.476H25.0269V7.744H19.1769V10.66H26.0349ZM39.8562 13L39.8382 5.458L36.1302 11.668H34.8342L31.1262 5.602V13H28.3902V0.399999H30.8022L35.5182 8.23L40.1622 0.399999H42.5742L42.5922 13H39.8562ZM50.6003 7.924H48.5843V13H45.6863V0.399999H48.5843V5.494H50.6723L53.9843 0.399999H57.0623L52.9403 6.484L57.1883 13H53.8763L50.6003 7.924ZM75.5402 0.399999V13H72.6422V2.776H66.9542V13H64.0562V0.399999H75.5402ZM88.2937 2.776H84.2617V13H81.3817V2.776H77.3677V0.399999H88.2937V2.776ZM90.1246 0.399999H100.295V2.722H93.0226V5.314H96.5146C98.0386 5.314 99.1966 5.632 99.9886 6.268C100.793 6.904 101.195 7.822 101.195 9.022C101.195 10.282 100.751 11.26 99.8626 11.956C98.9746 12.652 97.7206 13 96.1006 13H90.1246V0.399999ZM95.9386 10.84C96.6826 10.84 97.2526 10.696 97.6486 10.408C98.0446 10.108 98.2426 9.676 98.2426 9.112C98.2426 8.008 97.4746 7.456 95.9386 7.456H93.0226V10.84H95.9386ZM116.111 10.624V15.61H113.411V13H104.519V15.61H101.819L101.837 10.624H102.341C103.097 10.6 103.631 10.048 103.943 8.968C104.255 7.888 104.447 6.346 104.519 4.342L104.663 0.399999H114.347V10.624H116.111ZM107.093 4.612C107.033 6.112 106.907 7.372 106.715 8.392C106.523 9.4 106.229 10.144 105.833 10.624H111.467V2.776H107.147L107.093 4.612ZM7.878 25.33H4.862V33H3.185V25.33H0.182V23.9H7.878V25.33ZM15.3285 28.268C15.9092 28.424 16.3512 28.6927 16.6545 29.074C16.9579 29.4467 17.1095 29.9147 17.1095 30.478C17.1095 31.2753 16.8149 31.895 16.2255 32.337C15.6362 32.779 14.7825 33 13.6645 33H9.34852V23.9H13.4175C14.4402 23.9 15.2375 24.1037 15.8095 24.511C16.3815 24.9183 16.6675 25.4947 16.6675 26.24C16.6675 26.7167 16.5505 27.1283 16.3165 27.475C16.0912 27.8217 15.7619 28.086 15.3285 28.268ZM11.0125 27.787H13.2745C13.8205 27.787 14.2365 27.6787 14.5225 27.462C14.8085 27.2453 14.9515 26.9247 14.9515 26.5C14.9515 26.0753 14.8085 25.7547 14.5225 25.538C14.2365 25.3127 13.8205 25.2 13.2745 25.2H11.0125V27.787ZM13.6125 31.7C14.8085 31.7 15.4065 31.2493 15.4065 30.348C15.4065 29.464 14.8085 29.022 13.6125 29.022H11.0125V31.7H13.6125ZM19.0477 23.9H20.7117V33H19.0477V23.9ZM23.288 23.9H24.952V30.361L29.84 23.9H31.413V33H29.749V26.552L24.861 33H23.288V23.9ZM27.331 23.289C26.551 23.289 25.9616 23.1287 25.563 22.808C25.173 22.4873 24.9736 22.0193 24.965 21.404H26.148C26.1566 21.7247 26.2606 21.9717 26.46 22.145C26.6593 22.3183 26.9496 22.405 27.331 22.405C27.7036 22.405 27.994 22.3183 28.202 22.145C28.4186 21.9717 28.5313 21.7247 28.54 21.404H29.71C29.7013 22.0107 29.4933 22.4787 29.086 22.808C28.6873 23.1287 28.1023 23.289 27.331 23.289ZM45.6432 23.9V33H43.9532V29.1H39.2472V33H37.5572V23.9H39.2472V27.657H43.9532V23.9H45.6432ZM54.2279 30.894H49.6779L48.7809 33H47.0389L51.1339 23.9H52.7979L56.9059 33H55.1379L54.2279 30.894ZM53.6689 29.568L51.9529 25.59L50.2499 29.568H53.6689ZM67.3868 31.57V34.937H65.8268V33H58.8458V34.937H57.2728L57.2858 31.57H57.6758C58.2478 31.544 58.6465 31.1237 58.8718 30.309C59.1058 29.4857 59.2488 28.3113 59.3008 26.786L59.4048 23.9H66.0738V31.57H67.3868ZM60.7828 26.942C60.7395 28.1207 60.6442 29.1043 60.4968 29.893C60.3495 30.673 60.1155 31.232 59.7948 31.57H64.4098V25.33H60.8478L60.7828 26.942ZM68.9911 23.9H70.6551V33H68.9911V23.9ZM73.2313 23.9H74.8953V30.361L79.7833 23.9H81.3563V33H79.6923V26.552L74.8043 33H73.2313V23.9ZM77.2743 23.289C76.4943 23.289 75.905 23.1287 75.5063 22.808C75.1163 22.4873 74.917 22.0193 74.9083 21.404H76.0913C76.1 21.7247 76.204 21.9717 76.4033 22.145C76.6027 22.3183 76.893 22.405 77.2743 22.405C77.647 22.405 77.9373 22.3183 78.1453 22.145C78.362 21.9717 78.4747 21.7247 78.4833 21.404H79.6533C79.6447 22.0107 79.4367 22.4787 79.0293 22.808C78.6307 23.1287 78.0457 23.289 77.2743 23.289ZM91.9938 23.9V33H90.3038V29.1H85.5978V33H83.9078V23.9H85.5978V27.657H90.3038V23.9H91.9938ZM94.5595 23.9H96.2235V30.361L101.111 23.9H102.684V33H101.02V26.552L96.1325 33H94.5595V23.9ZM105.249 23.9H106.913V30.361L111.801 23.9H113.374V33H111.71V26.552L106.822 33H105.249V23.9ZM109.292 23.289C108.512 23.289 107.923 23.1287 107.524 22.808C107.134 22.4873 106.935 22.0193 106.926 21.404H108.109C108.118 21.7247 108.222 21.9717 108.421 22.145C108.62 22.3183 108.911 22.405 109.292 22.405C109.665 22.405 109.955 22.3183 110.163 22.145C110.38 21.9717 110.492 21.7247 110.501 21.404H111.671C111.662 22.0107 111.454 22.4787 111.047 22.808C110.648 23.1287 110.063 23.289 109.292 23.289ZM123.704 33.13C122.785 33.13 121.953 32.9307 121.208 32.532C120.471 32.1247 119.891 31.5657 119.466 30.855C119.05 30.1443 118.842 29.3427 118.842 28.45C118.842 27.5573 119.054 26.7557 119.479 26.045C119.904 25.3343 120.484 24.7797 121.221 24.381C121.966 23.9737 122.798 23.77 123.717 23.77C124.462 23.77 125.143 23.9 125.758 24.16C126.373 24.42 126.893 24.797 127.318 25.291L126.226 26.318C125.567 25.6073 124.757 25.252 123.795 25.252C123.171 25.252 122.612 25.3907 122.118 25.668C121.624 25.9367 121.238 26.3137 120.961 26.799C120.684 27.2843 120.545 27.8347 120.545 28.45C120.545 29.0653 120.684 29.6157 120.961 30.101C121.238 30.5863 121.624 30.9677 122.118 31.245C122.612 31.5137 123.171 31.648 123.795 31.648C124.757 31.648 125.567 31.2883 126.226 30.569L127.318 31.609C126.893 32.103 126.369 32.48 125.745 32.74C125.13 33 124.449 33.13 123.704 33.13ZM135.39 25.33H132.374V33H130.697V25.33H127.694V23.9H135.39V25.33ZM142.422 30.894H137.872L136.975 33H135.233L139.328 23.9H140.992L145.1 33H143.332L142.422 30.894ZM141.863 29.568L140.147 25.59L138.444 29.568H141.863ZM150.24 23.9C151.028 23.9 151.713 24.03 152.294 24.29C152.883 24.55 153.334 24.9227 153.646 25.408C153.958 25.8933 154.114 26.4697 154.114 27.137C154.114 27.7957 153.958 28.372 153.646 28.866C153.334 29.3513 152.883 29.724 152.294 29.984C151.713 30.244 151.028 30.374 150.24 30.374H148.186V33H146.496V23.9H150.24ZM150.162 28.944C150.898 28.944 151.457 28.788 151.839 28.476C152.22 28.164 152.411 27.7177 152.411 27.137C152.411 26.5563 152.22 26.11 151.839 25.798C151.457 25.486 150.898 25.33 150.162 25.33H148.186V28.944H150.162ZM162.05 25.33H159.034V33H157.357V25.33H154.354V23.9H162.05V25.33Z" fill="white"/>
</svg>
